<svg width="120" height="40" viewBox="0 0 120 40" fill="none" xmlns="http://www.w3.org/2000/svg">
  <path d="M15.5 8L5 32H10L12 27H23L25 32H30L19.5 8H15.5ZM13.5 23L17.5 13L21.5 23H13.5Z" fill="#3B82F6"/>
  <path d="M35 10V32H40V10H35Z" fill="#3B82F6"/>
  <path d="M45 10V32H50V23H60V18H50V15H62V10H45Z" fill="#3B82F6"/>
  <path d="M65 10V32H70V10H65Z" fill="#3B82F6"/>
  <path d="M75 10V32H80V23L90 32H96L85 22L95 10H89L80 20V10H75Z" fill="#3B82F6"/>
  <path d="M100 10V32H115V27H105V23H113V18H105V15H115V10H100Z" fill="#3B82F6"/>
</svg> 