<svg width="129" height="40" viewBox="0 0 129 40" fill="none" xmlns="http://www.w3.org/2000/svg">
<path d="M124.353 39.5845C122.07 39.5845 120.151 37.7168 120.151 35.486C120.151 33.2033 122.07 31.3356 124.353 31.3356C126.636 31.3356 128.555 33.2033 128.555 35.486C128.555 37.7168 126.636 39.5845 124.353 39.5845Z" fill="#002432"/>
<path d="M89.2603 26.0959C89.2603 18.1065 95.0189 12.6073 102.956 12.6073C110.894 12.6073 116.653 18.1065 116.653 26.0959C116.653 34.0854 110.894 39.5846 102.956 39.5846C95.0189 39.5846 89.2603 34.0854 89.2603 26.0959ZM95.5895 26.0959C95.5895 30.7651 98.5985 33.9297 102.956 33.9297C107.314 33.9297 110.323 30.7651 110.323 26.0959C110.323 21.4268 107.314 18.2621 102.956 18.2621C98.5985 18.2621 95.5895 21.4268 95.5895 26.0959Z" fill="#002432"/>
<path d="M66.5441 38.962H60.2148V13.3335H66.0772L66.596 16.6538C68.2043 14.0598 71.317 12.5553 74.793 12.5553C81.226 12.5553 84.5463 16.55 84.5463 23.1906V38.962H78.217V24.6951C78.217 20.3891 76.09 18.3139 72.8215 18.3139C68.9306 18.3139 66.5441 21.0117 66.5441 25.162V38.962Z" fill="#002432"/>
<path d="M47.3609 38.9619V18.6252H36.8813V38.9619H30.6039V18.6252H26.9204V13.3335H30.6039V10.2207C30.6039 3.26887 34.2354 0.363617 39.4234 0.363617C40.4091 0.363617 41.6023 0.415498 42.6918 0.623016V6.01847H40.4609C37.6076 6.01847 36.8813 7.67862 36.8813 10.2207V13.3335H53.6902V38.9619H47.3609ZM50.5256 8.09365C48.3985 8.09365 46.7384 6.43351 46.7384 4.30645C46.7384 2.23128 48.3985 0.571136 50.5256 0.571136C52.6007 0.571136 54.2609 2.23128 54.2609 4.30645C54.2609 6.43351 52.6007 8.09365 50.5256 8.09365Z" fill="#002432"/>
<path d="M8.76762 39.6364C3.32028 39.6364 0 36.4717 0 31.6469C0 26.9259 3.42404 23.9688 9.49394 23.5019L17.1721 22.9312V22.3605C17.1721 18.8846 15.0969 17.4839 11.8804 17.4839C8.14507 17.4839 6.06989 19.0402 6.06989 21.738H0.674432C0.674432 16.1869 5.23982 12.5553 12.1917 12.5553C19.0916 12.5553 23.3457 16.2906 23.3457 23.3981V38.962H17.7946L17.3277 35.1748C16.2383 37.8206 12.7623 39.6364 8.76762 39.6364ZM10.8428 34.8635C14.7338 34.8635 17.224 32.5289 17.224 28.5861V27.2372L11.8804 27.6522C7.93755 28.0154 6.43305 29.3124 6.43305 31.3876C6.43305 33.7221 7.98943 34.8635 10.8428 34.8635Z" fill="#002432"/>
</svg>
